<?xml version="1.0" encoding="UTF-8" standalone="no"?>
<!-- Created with Inkscape (http://www.inkscape.org/) -->

<svg
   xmlns:dc="http://purl.org/dc/elements/1.1/"
   xmlns:cc="http://creativecommons.org/ns#"
   xmlns:rdf="http://www.w3.org/1999/02/22-rdf-syntax-ns#"
   xmlns:svg="http://www.w3.org/2000/svg"
   xmlns="http://www.w3.org/2000/svg"
   xmlns:sodipodi="http://sodipodi.sourceforge.net/DTD/sodipodi-0.dtd"
   xmlns:inkscape="http://www.inkscape.org/namespaces/inkscape"
   width="600"
   height="100"
   viewBox="0 0 158.75 26.458333"
   id="svg2"
   version="1.1"
   inkscape:version="0.91+devel+osxmenu r12922"
   sodipodi:docname="logo.svg">
  <defs
     id="defs4" />
  <sodipodi:namedview
     id="base"
     pagecolor="#ffffff"
     bordercolor="#666666"
     borderopacity="1.0"
     inkscape:pageopacity="0.0"
     inkscape:pageshadow="2"
     inkscape:zoom="1.3768917"
     inkscape:cx="265.49342"
     inkscape:cy="-67.680827"
     inkscape:document-units="px"
     inkscape:current-layer="layer1"
     showgrid="true"
     units="px"
     showguides="false"
     inkscape:snap-text-baseline="true"
     inkscape:window-width="1440"
     inkscape:window-height="855"
     inkscape:window-x="0"
     inkscape:window-y="23"
     inkscape:window-maximized="0">
    <inkscape:grid
       type="xygrid"
       id="grid3336" />
  </sodipodi:namedview>
  <metadata
     id="metadata7">
    <rdf:RDF>
      <cc:Work
         rdf:about="">
        <dc:format>image/svg+xml</dc:format>
        <dc:type
           rdf:resource="http://purl.org/dc/dcmitype/StillImage" />
        <dc:title></dc:title>
      </cc:Work>
    </rdf:RDF>
  </metadata>
  <g
     inkscape:label="Ebene 1"
     inkscape:groupmode="layer"
     id="layer1"
     transform="translate(0,-270.54167)">
    <flowRoot
       xml:space="preserve"
       id="flowRoot4283"
       style="fill:black;stroke:none;stroke-opacity:1;stroke-width:1px;stroke-linejoin:miter;stroke-linecap:butt;fill-opacity:1;font-family:sans-serif;font-style:normal;font-weight:normal;font-size:40px;line-height:125%;letter-spacing:0px;word-spacing:0px"><flowRegion
         id="flowRegion4285"><rect
           id="rect4287"
           width="600"
           height="100"
           x="0"
           y="0" /></flowRegion><flowPara
         id="flowPara4289"></flowPara></flowRoot>    <g
       style="font-style:normal;font-variant:normal;font-weight:normal;font-stretch:normal;font-size:19.75555611px;line-height:125%;font-family:'Dr Sugiyama';-inkscape-font-specification:'Dr Sugiyama, Normal';font-variant-ligatures:none;font-variant-caps:normal;font-variant-numeric:normal;text-align:center;letter-spacing:0px;word-spacing:0px;writing-mode:lr-tb;text-anchor:middle;fill:#d0000f;fill-opacity:0.94117647;stroke:none;stroke-width:0.26458332px;stroke-linecap:butt;stroke-linejoin:miter;stroke-opacity:1"
       aria-label="Mohamed Ali Missaoui"
       id="text4291">
      <path
         d="m 11.341958,282.67723 0.05927,-4.36598 q -0.01976,-0.13829 -0.158045,-0.13829 -0.118533,0 -0.217311,0.13829 -0.968022,2.41018 -2.4496889,6.65762 -1.4619111,4.22769 -1.5409333,4.445 -0.059267,0.21732 -0.3753556,0.51365 -0.3160889,0.31609 -0.5531556,0.31609 -0.2370666,0 -0.2370666,-0.37536 -0.019756,-0.13829 -0.059267,-1.30386 -0.039511,-1.18534 -0.1185333,-2.41018 -0.079022,-1.22485 -0.2173112,-2.52871 -0.1185333,-1.32363 -0.3556,-2.15336 -0.2370666,-0.84949 -0.5334,-0.84949 -0.5136444,0 -2.9040667,8.09978 -0.3160889,1.10631 -0.3358445,1.14582 -0.079022,0.25682 -0.37535556,0.43462 -0.27657778,0.19756 -0.53340001,0.19756 -0.21731112,0 -0.21731112,-0.31609 0.13828889,-4.06964 0.13828889,-6.73664 0,-5.03767 -0.15804445,-6.77616 l -0.0592667,-0.65193 q 0,-0.13829 0.27657778,-0.39511 0.27657779,-0.27658 0.51364446,-0.27658 0.23706667,0 0.23706667,0.43462 l 0,0.13829 0.039511,1.65947 0,0.80997 q 0,7.52687 -0.098778,9.10732 0,0.3556 0.059267,0.3556 0.059267,0 1.6397112,-4.82036 1.6002,-4.84011 1.778,-5.43278 0.1778,-0.59266 0.4543778,-0.889 0.2765778,-0.31609 0.5926667,-0.31609 0.4543778,0 0.7507111,2.58798 0.2963334,2.58798 0.4543778,5.17596 0.1778,2.58797 0.2568222,2.58797 0.098778,0 0.5334001,-1.12606 0.4346222,-1.12607 0.9877778,-2.72627 0.5729111,-1.6002 1.1260667,-3.2004 1.363133,-3.83258 1.501422,-3.75355 -0.03951,-0.0198 0.118534,-0.15805 0.474133,-0.39511 0.770466,-0.43462 0.434622,0.0593 0.434622,0.5334 l 0,0.51364 q 0,1.48167 0.05927,2.37067 0.592667,9.85802 4.405489,9.85802 0.316089,0 0.572911,-0.1778 0.256823,-0.1778 0.335845,-0.1778 0.09878,0 0.217311,0.11854 0.118533,0.11853 0.118533,0.25682 0,0.51364 -1.086555,1.20509 -1.0668,0.7112 -2.094089,0.7112 -3.753556,0 -3.753556,-7.88247 z"
         style="font-style:normal;font-variant:normal;font-weight:normal;font-stretch:normal;font-size:19.75555611px;line-height:125%;font-family:'Dr Sugiyama';-inkscape-font-specification:'Dr Sugiyama, Normal';font-variant-ligatures:none;font-variant-caps:normal;font-variant-numeric:normal;text-align:center;writing-mode:lr-tb;text-anchor:middle;fill:#d0000f;fill-opacity:0.94117647;stroke-width:0.26458332px"
         id="path4402" />
      <path
         d="m 22.719615,287.51734 q -0.928511,0 -1.461911,-0.47413 -0.5334,-0.47414 -0.612422,-1.20509 -0.316089,0.23707 -0.316089,0.889 0,0.63218 0.3556,1.12607 0.375356,0.47413 0.908756,0.47413 0.553155,0 0.829733,-0.27658 0.296333,-0.27658 0.296333,-0.5334 z m 0.770467,-1.32362 q 0.05927,0.1778 0.138289,0.1778 0.09878,0 0.316089,-0.0988 0.217311,-0.11853 0.375355,-0.11853 0.158045,0 0.158045,0.19755 0,0.19756 -0.434622,0.65194 -0.414867,0.45437 -0.7112,0.45437 -0.414867,1.12607 -1.382889,2.09409 -0.948267,0.94827 -1.9558,0.94827 -0.7112,0 -1.185334,-0.47413 -0.474133,-0.45438 -0.474133,-1.34338 0,-0.90876 0.750711,-1.9558 0.750711,-1.0668 1.540933,-1.0668 l 0,-0.079 q 0,-0.43463 0.296334,-0.69145 0.296333,-0.27658 0.730955,-0.27658 1.343378,0 1.837267,1.58045 z"
         style="font-style:normal;font-variant:normal;font-weight:normal;font-stretch:normal;font-size:19.75555611px;line-height:125%;font-family:'Dr Sugiyama';-inkscape-font-specification:'Dr Sugiyama, Normal';font-variant-ligatures:none;font-variant-caps:normal;font-variant-numeric:normal;text-align:center;writing-mode:lr-tb;text-anchor:middle;fill:#d0000f;fill-opacity:0.94117647;stroke-width:0.26458332px"
         id="path4404" />
      <path
         d="m 25.372726,278.39027 q -0.809978,0 -0.809978,5.35376 l 0,1.18533 q 0.513644,-1.30386 0.948267,-2.88431 0.454377,-1.58044 0.454377,-2.60773 0,-1.04705 -0.592666,-1.04705 z m -0.612423,10.23338 q 0.197556,0 1.145823,-1.30386 0.948266,-1.30387 1.205089,-1.30387 0.256822,-0.0198 0.513644,0.41487 0.256822,0.43462 0.493889,0.96802 0.256822,0.51364 0.809978,0.96802 0.553155,0.43462 1.106311,0.43462 0.553155,0 0.671689,-0.079 0.118533,-0.079 0.1778,-0.079 0.07902,0 0.07902,0.15804 -0.01976,0.39511 -0.632178,0.94827 -0.612422,0.57291 -1.619955,0.57291 -1.698978,0 -2.370667,-1.9558 -0.05927,-0.11853 -0.118533,-0.11853 -0.03951,0 -0.138289,0.079 -0.09878,0.079 -0.414867,0.45438 -0.316089,0.37535 -0.651933,0.77046 -0.316089,0.39511 -0.395111,0.47414 -0.07902,0.079 -0.296334,0.079 -0.217311,0 -0.237066,-0.23707 -0.177801,-1.778 -0.177801,-3.71404 0,-1.9558 0.03951,-3.0226 0.05927,-1.0668 0.217311,-2.74602 0.158044,-1.67923 0.553155,-2.74603 0.414867,-1.0668 1.027289,-1.0668 1.284111,0 1.284111,1.79776 0,1.54093 -0.829733,3.89184 -0.829733,2.33116 -1.6002,3.69429 0.07902,2.667 0.158044,2.667 z"
         style="font-style:normal;font-variant:normal;font-weight:normal;font-stretch:normal;font-size:19.75555611px;line-height:125%;font-family:'Dr Sugiyama';-inkscape-font-specification:'Dr Sugiyama, Normal';font-variant-ligatures:none;font-variant-caps:normal;font-variant-numeric:normal;text-align:center;writing-mode:lr-tb;text-anchor:middle;fill:#d0000f;fill-opacity:0.94117647;stroke-width:0.26458332px"
         id="path4406" />
      <path
         d="m 35.429846,287.06296 -0.07902,0.55316 q 0,0.3556 0.296333,0.75071 0.316089,0.37536 0.730956,0.37536 0.316089,0 0.513644,-0.13829 0.434623,-0.29634 0.5334,-0.39511 0.118534,-0.11854 0.3556,-0.11854 0.256823,0 0.256823,0.1778 0,0.19756 -0.928512,1.2446 -0.296333,0.33585 -0.869244,0.7112 -0.572911,0.37536 -1.027289,0.37536 -0.434622,0 -0.671689,-0.15805 -0.217311,-0.13829 -0.316089,-0.45437 -0.118533,-0.43463 -0.118533,-1.0668 0,-0.079 -0.09878,-0.079 -0.09878,0 -0.454378,0.39511 -1.106311,1.14583 -1.797755,1.14583 -0.671689,0 -1.047045,-0.3556 -0.3556,-0.3556 -0.3556,-0.90876 0,-0.96802 0.513645,-1.83727 0.513644,-0.889 1.224844,-1.4224 1.580445,-1.16557 2.449689,-1.16557 1.303867,0.0395 1.303867,0.92851 0,0.31609 -0.276578,0.63218 -0.276578,0.29633 -0.513644,0.29633 -0.237067,0 -0.651934,-0.41487 -0.414866,-0.41486 -0.908755,-0.41486 -0.493889,0 -0.809978,0.41486 -0.316089,0.39511 -0.316089,1.02729 0,1.02729 1.086556,1.02729 0.434622,0 0.7112,-0.21731 0.296333,-0.21731 0.414866,-0.47413 0.335845,-0.67169 0.612422,-0.67169 0.237067,0 0.237067,0.23706 z"
         style="font-style:normal;font-variant:normal;font-weight:normal;font-stretch:normal;font-size:19.75555611px;line-height:125%;font-family:'Dr Sugiyama';-inkscape-font-specification:'Dr Sugiyama, Normal';font-variant-ligatures:none;font-variant-caps:normal;font-variant-numeric:normal;text-align:center;writing-mode:lr-tb;text-anchor:middle;fill:#d0000f;fill-opacity:0.94117647;stroke-width:0.26458332px"
         id="path4408" />
      <path
         d="m 41.957514,288.99901 q 0,-0.84949 -0.197556,-0.84949 -0.1778,0 -0.513644,0.49389 -0.316089,0.49389 -0.691445,0.98778 -0.375355,0.51364 -0.691444,0.51364 -0.1778,0 -0.553156,-0.63218 -0.3556,-0.63218 -0.790222,-1.2446 -0.434622,-0.63218 -0.770467,-0.63218 -0.09878,0 -0.09878,-0.0988 0,-0.31609 0.750712,-1.14583 0.750711,-0.82973 1.0668,-0.82973 0.335844,0 0.968022,1.02729 0.651933,1.02729 0.869244,1.02729 0.217311,0 0.869245,-0.80998 0.671689,-0.80998 1.047044,-0.80998 0.395111,0 0.572911,0.31609 0.197556,0.29634 0.217312,0.65194 0.03951,0.3556 0.07902,0.67168 0.03951,0.29634 0.158044,0.29634 0.197556,0 1.007534,-0.96802 0.829733,-0.98778 1.205088,-0.98778 0.414867,0 1.382889,1.2446 0.3556,0.47413 0.889,0.86924 0.553156,0.37536 0.908756,0.37536 0.3556,0 0.691444,-0.11854 0.335845,-0.11853 0.572912,-0.11853 0.237066,0 0.237066,0.15805 0,0.079 -0.07902,0.13828 -0.05927,0.0593 -0.335844,0.31609 -0.256823,0.23707 -0.434623,0.37536 -0.158044,0.13829 -0.474133,0.37535 -0.296333,0.25683 -0.513644,0.39512 -0.592667,0.3556 -1.126067,0.3556 -0.513645,0 -1.165578,-0.59267 -0.632178,-0.57291 -1.106311,-1.14582 -0.454378,-0.59267 -0.671689,-0.59267 -0.217311,0 -0.7112,0.59267 -0.474133,0.59266 -0.987778,1.18533 -0.493889,0.59267 -0.869244,0.59267 -0.3556,0 -0.553156,-0.33585 -0.1778,-0.33584 -0.1778,-0.73095 l 0.01976,-0.31609 z"
         style="font-style:normal;font-variant:normal;font-weight:normal;font-stretch:normal;font-size:19.75555611px;line-height:125%;font-family:'Dr Sugiyama';-inkscape-font-specification:'Dr Sugiyama, Normal';font-variant-ligatures:none;font-variant-caps:normal;font-variant-numeric:normal;text-align:center;writing-mode:lr-tb;text-anchor:middle;fill:#d0000f;fill-opacity:0.94117647;stroke-width:0.26458332px"
         id="path4410" />
      <path
         d="m 52.036861,287.31979 q 0.335845,-0.11854 0.671689,-0.75072 0.3556,-0.65193 0.3556,-1.0668 0,-0.41486 -0.316089,-0.43462 -0.474133,0 -0.671688,0.43462 -0.197556,0.41487 -0.197556,0.92852 0,0.49388 0.158044,0.889 z m 1.698978,1.28411 q 0.553156,0 0.908756,-0.23707 0.375355,-0.25682 0.691444,-0.65193 0.335845,-0.39511 0.513645,-0.39511 0.197555,0 0.197555,0.1778 0,0.11853 -0.07902,0.27657 -0.651933,1.04705 -1.619956,1.83727 -0.968022,0.80998 -2.054577,0.80998 -1.086556,0 -1.580445,-0.5334 -0.474133,-0.51365 -0.474133,-1.38289 0,-1.50142 1.126066,-3.06211 1.126067,-1.58045 2.331156,-1.58045 0.632178,0 0.632178,0.51365 0,0.69144 -0.434622,1.44215 -0.434623,0.73096 -1.6002,1.99531 0.5334,0.79023 1.442155,0.79023 z"
         style="font-style:normal;font-variant:normal;font-weight:normal;font-stretch:normal;font-size:19.75555611px;line-height:125%;font-family:'Dr Sugiyama';-inkscape-font-specification:'Dr Sugiyama, Normal';font-variant-ligatures:none;font-variant-caps:normal;font-variant-numeric:normal;text-align:center;writing-mode:lr-tb;text-anchor:middle;fill:#d0000f;fill-opacity:0.94117647;stroke-width:0.26458332px"
         id="path4412" />
      <path
         d="m 59.667137,282.10432 q 0,2.42993 0.414866,3.97087 0.493889,-1.26436 0.809978,-2.82505 0.335845,-1.58044 0.335845,-2.23238 0,-2.09409 -0.5334,-2.09409 -0.454378,0 -0.750712,1.14583 -0.276577,1.12606 -0.276577,2.03482 z m 2.923822,6.47982 0.750711,-0.19755 q 0.256822,0 0.256822,0.21731 0,0.1778 -0.335844,0.55315 -0.335845,0.3556 -0.968022,0.75071 -0.632178,0.39511 -1.224845,0.39511 -1.303867,0 -1.876778,-1.4224 -1.145822,1.40265 -2.607733,1.40265 -0.750711,0 -1.086556,-0.55316 -0.335844,-0.5334 -0.335844,-1.34337 0,-1.08656 1.185333,-2.23238 1.205089,-1.14582 1.896534,-1.14582 0.1778,0 0.237066,0.21731 0,0.15804 -0.513644,0.49389 -0.770467,0.47413 -0.770467,1.22484 0,0.82973 0.454378,1.0668 0.335844,0.19756 0.612422,0.19756 0.296334,0 0.632178,-0.27658 -0.217311,-1.0668 -0.217311,-2.56822 0,-1.52118 0.237067,-3.2004 0.256822,-1.69898 0.809977,-3.08187 0.572911,-1.38289 1.284111,-1.38289 0.454378,0 0.671689,0.63218 0.217311,0.63218 0.217311,1.56069 0,0.92851 -0.395111,3.08186 -0.375355,2.1336 -1.145822,3.9116 0.730956,1.69898 2.232378,1.69898 z"
         style="font-style:normal;font-variant:normal;font-weight:normal;font-stretch:normal;font-size:19.75555611px;line-height:125%;font-family:'Dr Sugiyama';-inkscape-font-specification:'Dr Sugiyama, Normal';font-variant-ligatures:none;font-variant-caps:normal;font-variant-numeric:normal;text-align:center;writing-mode:lr-tb;text-anchor:middle;fill:#d0000f;fill-opacity:0.94117647;stroke-width:0.26458332px"
         id="path4414" />
      <path
         d="m 79.365589,274.87379 q 0.849489,0 1.264356,0.37535 0.414867,0.37536 0.414867,0.98778 0,0.59267 -0.493889,1.02729 -0.493889,0.43462 -0.790223,0.43462 -0.296333,0 -0.316088,-0.27658 -0.03951,-0.47413 -0.632178,-0.889 -0.572911,-0.41486 -1.185334,-0.41486 -1.560689,0 -3.180644,1.48166 -1.619956,1.48167 -2.587978,3.39796 -0.968022,1.91629 -0.968022,3.23991 0,1.32362 0.553155,2.17311 0.572911,0.82973 1.659467,0.82973 1.738489,0 3.773311,-3.06211 0.948267,-1.40264 1.916289,-4.10915 0.3556,-0.96803 0.375356,-0.98778 0.158044,-0.41487 0.513644,-0.41487 0.1778,0 0.276578,0.11854 0.118533,0.0988 0.118533,0.25682 0,0.13829 -0.05927,0.31609 -0.572911,2.09409 -0.572911,4.01037 0,1.89654 0.651933,3.16089 0.651933,1.26436 1.738489,1.26436 0.553155,0 0.987778,-0.3556 0.138288,-0.11853 0.276577,-0.11853 0.237067,0 0.237067,0.21731 0,1.08655 -1.284111,2.03482 -1.284111,0.92851 -2.548467,0.92851 -2.034822,0 -2.034822,-2.80529 0,-1.12607 0.276578,-2.52871 0.296333,-1.40264 0.296333,-1.44216 0,-0.0593 -0.07902,-0.0593 -0.07902,0 -0.1778,0.1778 -1.126067,2.80529 -3.081867,4.72158 -1.9558,1.89653 -3.595511,1.89653 -1.639711,0 -2.350911,-1.26436 -0.493889,-0.84949 -0.493889,-2.09409 0,-2.44968 1.659466,-5.31424 1.679223,-2.88431 4.306712,-4.89938 2.647244,-2.01506 5.136444,-2.01506 z"
         style="font-style:normal;font-variant:normal;font-weight:normal;font-stretch:normal;font-size:19.75555611px;line-height:125%;font-family:'Dr Sugiyama';-inkscape-font-specification:'Dr Sugiyama, Normal';font-variant-ligatures:none;font-variant-caps:normal;font-variant-numeric:normal;text-align:center;writing-mode:lr-tb;text-anchor:middle;fill:#d0000f;fill-opacity:0.94117647;stroke-width:0.26458332px"
         id="path4416" />
      <path
         d="m 85.345039,278.6471 q -0.553155,0 -0.849489,1.28411 -0.276577,1.28411 -0.276577,2.60773 0,1.32362 0.276577,2.60773 1.363134,-2.03482 1.363134,-5.45253 0,-0.49389 -0.158045,-0.77047 -0.138288,-0.27657 -0.3556,-0.27657 z m 1.916289,9.6012 q 0.316089,0 0.908756,-0.23707 0.592667,-0.23707 0.809978,-0.23707 0.217311,0 0.217311,0.19756 0,0.45438 -1.2446,1.34338 -1.224845,0.86924 -1.975556,0.86924 -0.750711,0 -1.224844,-0.23707 -0.474134,-0.23706 -0.770467,-0.69144 -0.276578,-0.47413 -0.454378,-0.92851 -0.1778,-0.45438 -0.237066,-1.10631 -0.118534,-1.00754 -0.118534,-2.35091 0,-1.34338 0.3556,-3.22016 0.3556,-1.87678 0.987778,-3.18064 0.651933,-1.30387 1.363133,-1.34338 0.197556,0.0197 0.316089,0.079 0.138289,0.0395 0.256823,0.33585 0.138288,0.27657 0.138288,0.80997 0,4.85987 -1.916289,7.4676 0.790223,2.42994 2.587978,2.42994 z"
         style="font-style:normal;font-variant:normal;font-weight:normal;font-stretch:normal;font-size:19.75555611px;line-height:125%;font-family:'Dr Sugiyama';-inkscape-font-specification:'Dr Sugiyama, Normal';font-variant-ligatures:none;font-variant-caps:normal;font-variant-numeric:normal;text-align:center;writing-mode:lr-tb;text-anchor:middle;fill:#d0000f;fill-opacity:0.94117647;stroke-width:0.26458332px"
         id="path4418" />
      <path
         d="m 88.878503,283.4477 q -0.296333,-0.33585 -0.296333,-0.82974 0,-0.49389 0.296333,-0.82973 0.316089,-0.33584 0.770467,-0.33584 0.454378,0 0.750711,0.33584 0.316089,0.33584 0.316089,0.82973 0,0.49389 -0.316089,0.82974 -0.296333,0.33584 -0.750711,0.33584 -0.454378,0 -0.770467,-0.33584 z m 4.109156,4.30671 q 0.197556,-0.15805 0.3556,-0.15805 0.276578,0 0.276578,0.3556 0,0.49389 -1.224845,1.48167 -1.224844,0.96802 -2.113844,0.96802 -0.889,0 -1.382889,-0.63218 -0.493889,-0.63217 -0.493889,-1.61995 0,-1.00753 0.335844,-1.93605 0.335845,-0.92851 0.671689,-0.92851 0.158045,0.0198 0.158045,0.49389 0,0.45438 0.138289,1.00754 0.138289,0.55315 0.592666,1.0668 0.474134,0.49388 1.205089,0.49388 0.750711,0 1.481667,-0.59266 z"
         style="font-style:normal;font-variant:normal;font-weight:normal;font-stretch:normal;font-size:19.75555611px;line-height:125%;font-family:'Dr Sugiyama';-inkscape-font-specification:'Dr Sugiyama, Normal';font-variant-ligatures:none;font-variant-caps:normal;font-variant-numeric:normal;text-align:center;writing-mode:lr-tb;text-anchor:middle;fill:#d0000f;fill-opacity:0.94117647;stroke-width:0.26458332px"
         id="path4420" />
      <path
         d="m 108.84643,282.67723 0.0593,-4.36598 q -0.0198,-0.13829 -0.15805,-0.13829 -0.11853,0 -0.21731,0.13829 -0.96802,2.41018 -2.44969,6.65762 -1.46191,4.22769 -1.54093,4.445 -0.0593,0.21732 -0.37536,0.51365 -0.31609,0.31609 -0.55315,0.31609 -0.23707,0 -0.23707,-0.37536 -0.0198,-0.13829 -0.0593,-1.30386 -0.0395,-1.18534 -0.11853,-2.41018 -0.079,-1.22485 -0.21731,-2.52871 -0.11853,-1.32363 -0.3556,-2.15336 -0.23707,-0.84949 -0.5334,-0.84949 -0.51365,0 -2.904068,8.09978 -0.316089,1.10631 -0.335845,1.14582 -0.07902,0.25682 -0.375355,0.43462 -0.276578,0.19756 -0.5334,0.19756 -0.217311,0 -0.217311,-0.31609 0.138289,-4.06964 0.138289,-6.73664 0,-5.03767 -0.158045,-6.77616 l -0.05927,-0.65193 q 0,-0.13829 0.276577,-0.39511 0.276578,-0.27658 0.513645,-0.27658 0.237066,0 0.237066,0.43462 l 0,0.13829 0.03951,1.65947 0,0.80997 q 0,7.52687 -0.09878,9.10732 0,0.3556 0.05927,0.3556 0.05927,0 1.639713,-4.82036 1.6002,-4.84011 1.778,-5.43278 0.1778,-0.59266 0.45438,-0.889 0.27657,-0.31609 0.59266,-0.31609 0.45438,0 0.75071,2.58798 0.29634,2.58798 0.45438,5.17596 0.1778,2.58797 0.25682,2.58797 0.0988,0 0.5334,-1.12606 0.43463,-1.12607 0.98778,-2.72627 0.57291,-1.6002 1.12607,-3.2004 1.36313,-3.83258 1.50142,-3.75355 -0.0395,-0.0198 0.11853,-0.15805 0.47414,-0.39511 0.77047,-0.43462 0.43462,0.0593 0.43462,0.5334 l 0,0.51364 q 0,1.48167 0.0593,2.37067 0.59267,9.85802 4.40549,9.85802 0.31609,0 0.57291,-0.1778 0.25682,-0.1778 0.33584,-0.1778 0.0988,0 0.21732,0.11854 0.11853,0.11853 0.11853,0.25682 0,0.51364 -1.08656,1.20509 -1.0668,0.7112 -2.09409,0.7112 -3.75355,0 -3.75355,-7.88247 z"
         style="font-style:normal;font-variant:normal;font-weight:normal;font-stretch:normal;font-size:19.75555611px;line-height:125%;font-family:'Dr Sugiyama';-inkscape-font-specification:'Dr Sugiyama, Normal';font-variant-ligatures:none;font-variant-caps:normal;font-variant-numeric:normal;text-align:center;writing-mode:lr-tb;text-anchor:middle;fill:#d0000f;fill-opacity:0.94117647;stroke-width:0.26458332px"
         id="path4422" />
      <path
         d="m 116.31249,283.4477 q -0.29634,-0.33585 -0.29634,-0.82974 0,-0.49389 0.29634,-0.82973 0.31609,-0.33584 0.77046,-0.33584 0.45438,0 0.75071,0.33584 0.31609,0.33584 0.31609,0.82973 0,0.49389 -0.31609,0.82974 -0.29633,0.33584 -0.75071,0.33584 -0.45437,0 -0.77046,-0.33584 z m 4.10915,4.30671 q 0.19756,-0.15805 0.3556,-0.15805 0.27658,0 0.27658,0.3556 0,0.49389 -1.22484,1.48167 -1.22485,0.96802 -2.11385,0.96802 -0.889,0 -1.38289,-0.63218 -0.49389,-0.63217 -0.49389,-1.61995 0,-1.00753 0.33585,-1.93605 0.33584,-0.92851 0.67169,-0.92851 0.15804,0.0198 0.15804,0.49389 0,0.45438 0.13829,1.00754 0.13829,0.55315 0.59267,1.0668 0.47413,0.49388 1.20509,0.49388 0.75071,0 1.48166,-0.59266 z"
         style="font-style:normal;font-variant:normal;font-weight:normal;font-stretch:normal;font-size:19.75555611px;line-height:125%;font-family:'Dr Sugiyama';-inkscape-font-specification:'Dr Sugiyama, Normal';font-variant-ligatures:none;font-variant-caps:normal;font-variant-numeric:normal;text-align:center;writing-mode:lr-tb;text-anchor:middle;fill:#d0000f;fill-opacity:0.94117647;stroke-width:0.26458332px"
         id="path4424" />
      <path
         d="m 125.78281,288.32732 q 0.15804,0 0.51364,-0.23707 0.3556,-0.23706 0.57291,-0.47413 l 0.21731,-0.21731 q 0.13829,-0.13829 0.27658,-0.13829 0.23707,0 0.23707,0.27658 0,0.0988 -0.0198,0.15804 -0.51364,1.2446 -1.89653,1.99531 -1.38289,0.77047 -2.46944,0.77047 -2.11385,0 -2.11385,-1.65947 0,-0.21731 0.51365,-0.69144 0.51364,-0.47414 0.75071,-0.59267 0.15804,-0.11853 0.23706,-0.11853 0.0988,0 0.15805,0.079 0.0593,0.079 0.13829,0.19756 0.079,0.11853 0.13829,0.19755 0.0593,0.079 0.15804,0.21731 0.0988,0.13829 0.19756,0.23707 0.11853,0.079 0.25682,0.15804 0.25682,0.19756 0.5334,0.19756 0.29633,0 0.29633,-0.33585 0,-0.82973 -0.61242,-1.4224 -0.61242,-0.61242 -1.02729,-0.61242 -0.0988,0 -0.19756,0.11854 l -0.73095,0.73095 q -0.1778,0.1778 -0.25682,0.1778 -0.29634,0 -0.29634,-0.25682 2.11385,-2.58798 2.50896,-2.58798 0.55315,0 1.26435,0.75071 0.7112,0.75071 0.7112,1.50142 0,0.7112 -0.11853,1.08656 -0.0988,0.37536 -0.0988,0.43462 0,0.0593 0.15805,0.0593 z"
         style="font-style:normal;font-variant:normal;font-weight:normal;font-stretch:normal;font-size:19.75555611px;line-height:125%;font-family:'Dr Sugiyama';-inkscape-font-specification:'Dr Sugiyama, Normal';font-variant-ligatures:none;font-variant-caps:normal;font-variant-numeric:normal;text-align:center;writing-mode:lr-tb;text-anchor:middle;fill:#d0000f;fill-opacity:0.94117647;stroke-width:0.26458332px"
         id="path4426" />
      <path
         d="m 132.03359,288.32732 q 0.15805,0 0.51365,-0.23707 0.3556,-0.23706 0.57291,-0.47413 l 0.21731,-0.21731 q 0.13829,-0.13829 0.27658,-0.13829 0.23707,0 0.23707,0.27658 0,0.0988 -0.0198,0.15804 -0.51364,1.2446 -1.89653,1.99531 -1.38289,0.77047 -2.46945,0.77047 -2.11384,0 -2.11384,-1.65947 0,-0.21731 0.51364,-0.69144 0.51365,-0.47414 0.75071,-0.59267 0.15805,-0.11853 0.23707,-0.11853 0.0988,0 0.15804,0.079 0.0593,0.079 0.13829,0.19756 0.079,0.11853 0.13829,0.19755 0.0593,0.079 0.15805,0.21731 0.0988,0.13829 0.19755,0.23707 0.11854,0.079 0.25682,0.15804 0.25683,0.19756 0.5334,0.19756 0.29634,0 0.29634,-0.33585 0,-0.82973 -0.61242,-1.4224 -0.61243,-0.61242 -1.02729,-0.61242 -0.0988,0 -0.19756,0.11854 l -0.73095,0.73095 q -0.1778,0.1778 -0.25683,0.1778 -0.29633,0 -0.29633,-0.25682 2.11384,-2.58798 2.50896,-2.58798 0.55315,0 1.26435,0.75071 0.7112,0.75071 0.7112,1.50142 0,0.7112 -0.11853,1.08656 -0.0988,0.37536 -0.0988,0.43462 0,0.0593 0.15804,0.0593 z"
         style="font-style:normal;font-variant:normal;font-weight:normal;font-stretch:normal;font-size:19.75555611px;line-height:125%;font-family:'Dr Sugiyama';-inkscape-font-specification:'Dr Sugiyama, Normal';font-variant-ligatures:none;font-variant-caps:normal;font-variant-numeric:normal;text-align:center;writing-mode:lr-tb;text-anchor:middle;fill:#d0000f;fill-opacity:0.94117647;stroke-width:0.26458332px"
         id="path4428" />
      <path
         d="m 138.02755,287.06296 -0.079,0.55316 q 0,0.3556 0.29633,0.75071 0.31609,0.37536 0.73096,0.37536 0.31609,0 0.51364,-0.13829 0.43462,-0.29634 0.5334,-0.39511 0.11853,-0.11854 0.3556,-0.11854 0.25682,0 0.25682,0.1778 0,0.19756 -0.92851,1.2446 -0.29633,0.33585 -0.86924,0.7112 -0.57291,0.37536 -1.02729,0.37536 -0.43462,0 -0.67169,-0.15805 -0.21731,-0.13829 -0.31609,-0.45437 -0.11853,-0.43463 -0.11853,-1.0668 0,-0.079 -0.0988,-0.079 -0.0988,0 -0.45438,0.39511 -1.10631,1.14583 -1.79775,1.14583 -0.67169,0 -1.04705,-0.3556 -0.3556,-0.3556 -0.3556,-0.90876 0,-0.96802 0.51365,-1.83727 0.51364,-0.889 1.22484,-1.4224 1.58045,-1.16557 2.44969,-1.16557 1.30387,0.0395 1.30387,0.92851 0,0.31609 -0.27658,0.63218 -0.27658,0.29633 -0.51365,0.29633 -0.23706,0 -0.65193,-0.41487 -0.41487,-0.41486 -0.90875,-0.41486 -0.49389,0 -0.80998,0.41486 -0.31609,0.39511 -0.31609,1.02729 0,1.02729 1.08655,1.02729 0.43463,0 0.7112,-0.21731 0.29634,-0.21731 0.41487,-0.47413 0.33585,-0.67169 0.61242,-0.67169 0.23707,0 0.23707,0.23706 z"
         style="font-style:normal;font-variant:normal;font-weight:normal;font-stretch:normal;font-size:19.75555611px;line-height:125%;font-family:'Dr Sugiyama';-inkscape-font-specification:'Dr Sugiyama, Normal';font-variant-ligatures:none;font-variant-caps:normal;font-variant-numeric:normal;text-align:center;writing-mode:lr-tb;text-anchor:middle;fill:#d0000f;fill-opacity:0.94117647;stroke-width:0.26458332px"
         id="path4430" />
      <path
         d="m 144.41693,287.51734 q -0.92851,0 -1.46191,-0.47413 -0.5334,-0.47414 -0.61243,-1.20509 -0.31609,0.23707 -0.31609,0.889 0,0.63218 0.3556,1.12607 0.37536,0.47413 0.90876,0.47413 0.55316,0 0.82973,-0.27658 0.29634,-0.27658 0.29634,-0.5334 z m 0.77046,-1.32362 q 0.0593,0.1778 0.13829,0.1778 0.0988,0 0.31609,-0.0988 0.21731,-0.11853 0.37536,-0.11853 0.15804,0 0.15804,0.19755 0,0.19756 -0.43462,0.65194 -0.41487,0.45437 -0.7112,0.45437 -0.41487,1.12607 -1.38289,2.09409 -0.94827,0.94827 -1.9558,0.94827 -0.7112,0 -1.18533,-0.47413 -0.47414,-0.45438 -0.47414,-1.34338 0,-0.90876 0.75071,-1.9558 0.75072,-1.0668 1.54094,-1.0668 l 0,-0.079 q 0,-0.43463 0.29633,-0.69145 0.29633,-0.27658 0.73096,-0.27658 1.34337,0 1.83726,1.58045 z"
         style="font-style:normal;font-variant:normal;font-weight:normal;font-stretch:normal;font-size:19.75555611px;line-height:125%;font-family:'Dr Sugiyama';-inkscape-font-specification:'Dr Sugiyama, Normal';font-variant-ligatures:none;font-variant-caps:normal;font-variant-numeric:normal;text-align:center;writing-mode:lr-tb;text-anchor:middle;fill:#d0000f;fill-opacity:0.94117647;stroke-width:0.26458332px"
         id="path4432" />
      <path
         d="m 154.68519,287.67539 q -0.39511,0.7112 -1.50142,1.63971 -1.08656,0.90875 -1.91629,0.90875 -1.56069,0 -1.63971,-1.91629 0,-0.1778 -0.079,-0.1778 -0.0395,0 -0.41487,0.47414 -0.3556,0.47413 -1.00753,0.96802 -0.63218,0.47413 -1.32362,0.47413 -0.67169,0 -1.08656,-0.41486 -0.39511,-0.41487 -0.39511,-1.10632 0,-0.7112 0.41487,-1.85702 0.41486,-1.14582 0.80997,-1.14582 0.19756,0.0198 0.31609,0.19756 0.13829,0.1778 0.13829,0.39511 0.0198,0.21731 0.0988,0.5334 0.079,0.31609 0.43462,0.7112 0.3556,0.37535 0.92851,0.37535 0.98778,0 1.61996,-1.69898 0,-0.0197 0.0395,-0.0988 0.0395,-0.0988 0.0593,-0.13829 0.0198,-0.0593 0.0593,-0.13829 0.0395,-0.0988 0.079,-0.13829 0.27658,-0.21731 0.45438,0 0.11854,0.15804 0.13829,0.57291 0,0.63218 0.5334,1.2446 0.55316,0.59267 1.4224,0.59267 0.86925,0 1.38289,-0.51365 0.19756,-0.23706 0.39511,-0.23706 0.13829,0 0.13829,0.15804 0,0.15805 -0.0988,0.33585 z"
         style="font-style:normal;font-variant:normal;font-weight:normal;font-stretch:normal;font-size:19.75555611px;line-height:125%;font-family:'Dr Sugiyama';-inkscape-font-specification:'Dr Sugiyama, Normal';font-variant-ligatures:none;font-variant-caps:normal;font-variant-numeric:normal;text-align:center;writing-mode:lr-tb;text-anchor:middle;fill:#d0000f;fill-opacity:0.94117647;stroke-width:0.26458332px"
         id="path4434" />
      <path
         d="m 154.47313,283.4477 q -0.29633,-0.33585 -0.29633,-0.82974 0,-0.49389 0.29633,-0.82973 0.31609,-0.33584 0.77047,-0.33584 0.45438,0 0.75071,0.33584 0.31609,0.33584 0.31609,0.82973 0,0.49389 -0.31609,0.82974 -0.29633,0.33584 -0.75071,0.33584 -0.45438,0 -0.77047,-0.33584 z m 4.10916,4.30671 q 0.19755,-0.15805 0.3556,-0.15805 0.27657,0 0.27657,0.3556 0,0.49389 -1.22484,1.48167 -1.22484,0.96802 -2.11384,0.96802 -0.889,0 -1.38289,-0.63218 -0.49389,-0.63217 -0.49389,-1.61995 0,-1.00753 0.33584,-1.93605 0.33585,-0.92851 0.67169,-0.92851 0.15805,0.0198 0.15805,0.49389 0,0.45438 0.13828,1.00754 0.13829,0.55315 0.59267,1.0668 0.47413,0.49388 1.20509,0.49388 0.75071,0 1.48167,-0.59266 z"
         style="font-style:normal;font-variant:normal;font-weight:normal;font-stretch:normal;font-size:19.75555611px;line-height:125%;font-family:'Dr Sugiyama';-inkscape-font-specification:'Dr Sugiyama, Normal';font-variant-ligatures:none;font-variant-caps:normal;font-variant-numeric:normal;text-align:center;writing-mode:lr-tb;text-anchor:middle;fill:#d0000f;fill-opacity:0.94117647;stroke-width:0.26458332px"
         id="path4436" />
    </g>
  </g>
</svg>
